<svg width="1200" height="800" viewBox="0 0 1200 800" xmlns="http://www.w3.org/2000/svg">
  <defs>
    <linearGradient id="g1" x1="0%" y1="0%" x2="100%" y2="100%">
      <stop offset="0%" stop-color="#1b2b48" />
      <stop offset="100%" stop-color="#273b63" />
    </linearGradient>
    <linearGradient id="g2" x1="0%" y1="0%" x2="0%" y2="100%">
      <stop offset="0%" stop-color="#f9d976" />
      <stop offset="100%" stop-color="#f39f86" />
    </linearGradient>
  </defs>
  <rect width="1200" height="800" fill="url(#g1)" rx="32" />
  <g fill="none" stroke="#ffffff22" stroke-width="4">
    <rect x="120" y="140" width="960" height="520" rx="28" />
    <rect x="200" y="220" width="320" height="360" rx="20" />
    <rect x="560" y="220" width="440" height="360" rx="24" />
  </g>
  <g>
    <rect x="240" y="280" width="240" height="80" rx="14" fill="#f3f7ff" opacity="0.85" />
    <rect x="240" y="380" width="240" height="80" rx="14" fill="#f3f7ff" opacity="0.65" />
    <rect x="240" y="480" width="240" height="80" rx="14" fill="#f3f7ff" opacity="0.45" />
  </g>
  <g>
    <rect x="620" y="260" width="360" height="220" rx="22" fill="#0f172a" opacity="0.9" />
    <rect x="660" y="300" width="280" height="140" rx="18" fill="#101f36" />
    <rect x="720" y="340" width="160" height="60" rx="12" fill="#182c4f" />
  </g>
  <circle cx="340" cy="240" r="46" fill="url(#g2)" opacity="0.85" />
  <text x="600" y="640" text-anchor="middle" font-size="56" font-family="'Segoe UI',sans-serif" fill="#f6f9ff" opacity="0.92">
    Indoor Meeting Suite
  </text>
  <text x="600" y="690" text-anchor="middle" font-size="26" font-family="'Segoe UI',sans-serif" fill="#c7d4f8" opacity="0.8">
    Designed for executive boardroom sessions and hybrid collaboration
  </text>
</svg>
