<svg width="298" height="53" viewBox="0 0 298 53" fill="none" xmlns="http://www.w3.org/2000/svg">
<g clip-path="url(#clip0_777_29408)">
<path d="M254.393 42.6202V40.7246L259.327 35.9673C260.251 35.099 260.715 34.2491 260.715 33.4114C260.715 32.8794 260.532 32.4391 260.165 32.0906C259.798 31.742 259.315 31.5708 258.716 31.5708C257.597 31.5708 256.729 32.2068 256.111 33.4786L254.173 32.1884C254.368 31.7848 254.594 31.4118 254.87 31.0694C255.139 30.7331 255.463 30.4151 255.836 30.1339C256.215 29.8465 256.655 29.6263 257.169 29.4673C257.682 29.3084 258.239 29.2289 258.838 29.2289C260.159 29.2289 261.217 29.6263 262.024 30.4212C262.831 31.2162 263.235 32.1945 263.235 33.3502C263.235 34.0473 263.07 34.7138 262.733 35.3497C262.397 35.9796 261.847 36.6522 261.088 37.3676L257.811 40.4128H263.314V42.6202H254.393Z" fill="#004A8F"/>
<path d="M270.364 42.9137C269.38 42.9137 268.487 42.6202 267.698 42.0271C266.903 41.4401 266.286 40.6207 265.839 39.5812C265.393 38.5417 265.173 37.3737 265.173 36.0774C265.173 34.7811 265.393 33.607 265.827 32.5614C266.261 31.5158 266.873 30.6964 267.649 30.1094C268.426 29.5163 269.3 29.2227 270.267 29.2227C271.233 29.2227 272.156 29.5163 272.957 30.1094C273.758 30.6964 274.376 31.5158 274.822 32.5553C275.262 33.5948 275.482 34.7627 275.464 36.0591C275.476 37.3554 275.262 38.5294 274.828 39.5751C274.394 40.6207 273.783 41.4401 273.006 42.0271C272.229 42.6141 271.349 42.9137 270.371 42.9137H270.364ZM270.328 40.5534C271.117 40.5534 271.752 40.1376 272.242 39.3121C272.731 38.4866 272.975 37.4104 272.975 36.0774C272.975 34.7444 272.725 33.6498 272.229 32.8182C271.734 31.9866 271.08 31.5708 270.267 31.5708C269.453 31.5708 268.866 31.9866 268.389 32.8182C267.912 33.6498 267.668 34.7322 267.668 36.0529C267.668 37.3737 267.912 38.4744 268.402 39.306C268.891 40.1376 269.533 40.5473 270.328 40.5473V40.5534Z" fill="#004A8F"/>
<path d="M277.011 42.6202V40.7246L281.946 35.9673C282.869 35.099 283.334 34.2491 283.334 33.4114C283.334 32.8794 283.15 32.4391 282.784 32.0906C282.417 31.742 281.934 31.5708 281.334 31.5708C280.215 31.5708 279.347 32.2068 278.729 33.4786L276.791 32.1884C276.987 31.7848 277.213 31.4118 277.488 31.0694C277.757 30.7331 278.081 30.4151 278.454 30.1339C278.827 29.8465 279.274 29.6263 279.787 29.4673C280.301 29.3084 280.857 29.2289 281.457 29.2289C282.771 29.2289 283.835 29.6263 284.642 30.4212C285.45 31.2162 285.853 32.1945 285.853 33.3502C285.853 34.0473 285.688 34.7138 285.352 35.3497C285.015 35.9796 284.465 36.6522 283.707 37.3676L280.429 40.4128H285.933V42.6202H277.011Z" fill="#004A8F"/>
<path d="M291.784 40.5534C292.524 40.5534 293.111 40.3516 293.539 39.9542C293.967 39.5567 294.181 39.037 294.181 38.4071C294.181 37.7773 293.974 37.2514 293.558 36.8417C293.142 36.4259 292.555 36.2242 291.803 36.2242C290.916 36.2242 290.078 36.4626 289.284 36.9457L288.146 36.1447L289.204 29.5101H295.936V31.7176H291.228L290.782 34.3836C291.204 34.1879 291.711 34.0962 292.31 34.0962C293.656 34.0962 294.726 34.4998 295.514 35.3131C296.303 36.1202 296.701 37.1719 296.701 38.456C296.701 39.7401 296.26 40.8347 295.38 41.6663C294.499 42.504 293.313 42.9198 291.827 42.9198C290.812 42.9198 289.932 42.7242 289.18 42.3267C288.427 41.9292 287.816 41.385 287.351 40.6818L289.167 39.0553C289.864 40.0581 290.739 40.5656 291.784 40.5656V40.5534Z" fill="#004A8F"/>
<path d="M194.774 11.8935L194.028 12.8046C192.982 11.9913 191.808 11.5816 190.499 11.5816C189.582 11.5816 188.738 11.8201 187.968 12.291C187.191 12.7618 186.58 13.41 186.133 14.2232C185.681 15.0365 185.455 15.9231 185.455 16.8831C185.455 17.8432 185.681 18.7115 186.133 19.5125C186.586 20.3135 187.216 20.9433 188.011 21.4142C188.806 21.885 189.686 22.1174 190.652 22.1174C192.016 22.1174 193.153 21.7322 194.064 20.9617L194.786 21.7872C194.211 22.2947 193.581 22.6616 192.896 22.894C192.212 23.1202 191.435 23.2364 190.554 23.2364C189.674 23.2364 188.855 23.0713 188.078 22.735C187.295 22.3987 186.629 21.9462 186.072 21.3836C185.516 20.8149 185.076 20.1423 184.745 19.3596C184.421 18.5769 184.256 17.7514 184.256 16.8893C184.256 16.0271 184.421 15.1894 184.752 14.3944C185.082 13.5995 185.522 12.9208 186.085 12.3521C186.641 11.7834 187.307 11.3248 188.078 10.9885C188.848 10.6522 189.656 10.481 190.506 10.481C191.417 10.481 192.212 10.5972 192.896 10.8295C193.581 11.0619 194.205 11.4165 194.78 11.8996L194.774 11.8935Z" fill="#004A8F"/>
<path d="M197.434 10.6767H205.016V11.759H198.589V16.3022H204.588V17.3846H198.589V21.9462H205.132V23.0285H197.434V10.6767Z" fill="#004A8F"/>
<path d="M213.35 10.4688C214.2 10.4688 215.014 10.64 215.784 10.9763C216.554 11.3126 217.221 11.7712 217.777 12.346C218.334 12.9208 218.78 13.5995 219.11 14.3883C219.441 15.1771 219.606 16.0087 219.606 16.8831C219.606 17.7576 219.441 18.5647 219.11 19.3535C218.78 20.1423 218.34 20.8149 217.777 21.3836C217.221 21.9523 216.554 22.4048 215.784 22.735C215.014 23.0713 214.2 23.2364 213.35 23.2364C212.219 23.2364 211.18 22.9551 210.22 22.3864C209.26 21.8178 208.501 21.0473 207.945 20.0751C207.388 19.1028 207.107 18.0388 207.107 16.8831C207.107 16.0148 207.272 15.1832 207.602 14.3883C207.933 13.5934 208.373 12.9147 208.935 12.346C209.492 11.7773 210.158 11.3187 210.929 10.9824C211.699 10.6461 212.506 10.4749 213.356 10.4749L213.35 10.4688ZM211.4 21.7077C212.017 21.9829 212.672 22.1235 213.356 22.1235C214.041 22.1235 214.696 21.989 215.319 21.7077C215.943 21.4325 216.487 21.0595 216.934 20.5887C217.386 20.1179 217.741 19.5614 218.01 18.9132C218.279 18.2651 218.407 17.5925 218.407 16.8831C218.407 15.9231 218.181 15.0365 217.729 14.2232C217.276 13.41 216.665 12.7618 215.888 12.291C215.111 11.8201 214.261 11.5816 213.35 11.5816C212.665 11.5816 212.017 11.7223 211.394 12.0036C210.77 12.2848 210.232 12.6578 209.779 13.1348C209.327 13.6117 208.966 14.1743 208.697 14.8347C208.428 15.489 208.3 16.1738 208.3 16.8893C208.3 17.6047 208.434 18.2773 208.697 18.9194C208.966 19.5675 209.321 20.124 209.779 20.5948C210.232 21.0656 210.77 21.4386 211.394 21.7138L211.4 21.7077Z" fill="#004A8F"/>
<path d="M235.516 12.242L234.691 13.0308C234.391 12.6089 233.945 12.2604 233.358 11.973C232.771 11.6856 232.135 11.5449 231.456 11.5449C230.582 11.5449 229.872 11.7345 229.34 12.1075C228.808 12.4805 228.539 12.9758 228.539 13.5873C228.539 13.9236 228.619 14.2232 228.79 14.4862C228.955 14.7491 229.175 14.9692 229.457 15.1404C229.738 15.3116 230.056 15.4706 230.423 15.6113C230.79 15.7519 231.169 15.8864 231.572 16.0087C231.976 16.131 232.373 16.2656 232.783 16.4001C233.187 16.5346 233.572 16.6997 233.933 16.8893C234.293 17.0788 234.617 17.2989 234.899 17.5435C235.18 17.7881 235.4 18.0939 235.565 18.4669C235.73 18.8399 235.816 19.2618 235.816 19.7326C235.816 20.7966 235.425 21.6465 234.642 22.2886C233.859 22.9245 232.801 23.2425 231.462 23.2425C230.447 23.2425 229.554 23.0591 228.778 22.6922C228.007 22.3253 227.39 21.83 226.931 21.2124L227.769 20.4481C228.215 20.9984 228.753 21.4203 229.383 21.7138C230.013 22.0073 230.71 22.1541 231.468 22.1541C232.447 22.1541 233.211 21.9462 233.774 21.5243C234.33 21.1023 234.611 20.5459 234.611 19.8427C234.611 19.3657 234.477 18.956 234.214 18.6136C233.945 18.2712 233.602 17.996 233.174 17.7942C232.746 17.5925 232.276 17.409 231.762 17.2439C231.248 17.0788 230.735 16.9015 230.221 16.7242C229.707 16.5407 229.236 16.3328 228.808 16.0943C228.38 15.8559 228.038 15.5257 227.769 15.1099C227.5 14.6941 227.371 14.1988 227.371 13.6301C227.371 12.6823 227.751 11.918 228.509 11.3432C229.267 10.7623 230.27 10.4749 231.505 10.4749C232.386 10.4749 233.181 10.64 233.908 10.9763C234.63 11.3126 235.174 11.7345 235.529 12.242H235.516Z" fill="#004A8F"/>
<path d="M238.641 18.3996V10.6828H239.772V18.4302C239.772 19.537 240.096 20.4358 240.738 21.1084C241.387 21.7872 242.23 22.1235 243.276 22.1235C244.322 22.1235 245.165 21.7872 245.807 21.1207C246.443 20.4481 246.768 19.5614 246.768 18.4485V10.6828H247.923V18.3996C247.923 19.8549 247.495 21.0228 246.645 21.9095C245.795 22.7961 244.664 23.2425 243.258 23.2425C241.851 23.2425 240.751 22.7961 239.907 21.9095C239.063 21.0228 238.641 19.8549 238.641 18.3996Z" fill="#004A8F"/>
<path d="M257.884 20.5214L252.882 12.5845V23.0224H251.727V10.6767H253.054L257.964 18.5769L262.862 10.6767H264.036V23.0224H262.88V12.5845L257.884 20.5214Z" fill="#004A8F"/>
<path d="M274.149 20.5214L269.148 12.5845V23.0224H267.992V10.6767H269.319L274.229 18.5769L279.127 10.6767H280.301V23.0224H279.145V12.5845L274.149 20.5214Z" fill="#004A8F"/>
<path d="M284.257 23.0224V10.6767H285.413V23.0224H284.257Z" fill="#004A8F"/>
<path d="M297.172 11.759H293.032V23.0224H291.876V11.759H287.761V10.6767H297.172V11.759Z" fill="#004A8F"/>
<path d="M185.999 42.6202V29.504H188.555V34.9095H189.802L193.502 29.504H196.388L191.973 35.949L196.7 42.6202H193.593L189.906 37.3065H188.555V42.6202H185.999Z" fill="#004A8F"/>
<path d="M203.31 29.2227C204.227 29.2227 205.108 29.4062 205.945 29.767C206.783 30.1277 207.505 30.6169 208.11 31.2284C208.715 31.8399 209.198 32.5675 209.559 33.4175C209.92 34.2613 210.097 35.148 210.097 36.0774C210.097 37.0068 209.92 37.8874 209.559 38.7312C209.198 39.5751 208.715 40.2966 208.11 40.9081C207.505 41.5195 206.783 42.0026 205.945 42.3695C205.108 42.7303 204.227 42.9137 203.31 42.9137C202.393 42.9137 201.512 42.7303 200.674 42.3695C199.837 42.0087 199.115 41.5195 198.51 40.9081C197.904 40.2966 197.421 39.5751 197.067 38.7312C196.712 37.8874 196.535 37.0068 196.535 36.0774C196.535 34.8361 196.834 33.6926 197.44 32.6409C198.045 31.5892 198.864 30.7576 199.91 30.14C200.95 29.5285 202.087 29.2227 203.31 29.2227ZM203.31 40.3577C204.435 40.3577 205.395 39.9419 206.19 39.1103C206.985 38.2787 207.382 37.2698 207.382 36.0835C207.382 34.8973 206.985 33.8883 206.19 33.0445C205.395 32.2068 204.435 31.7848 203.31 31.7848C202.185 31.7848 201.237 32.2068 200.442 33.0445C199.647 33.8822 199.256 34.8973 199.256 36.0835C199.256 37.2698 199.653 38.2726 200.448 39.1042C201.243 39.9419 202.197 40.3577 203.31 40.3577Z" fill="#004A8F"/>
<path d="M212.58 42.6202V29.504H217.245C218.792 29.504 220.034 29.8831 220.975 30.6353C221.911 31.3935 222.382 32.3902 222.382 33.6376C222.382 34.5243 222.137 35.2947 221.654 35.9429C221.165 36.5972 220.486 37.0802 219.618 37.4043L222.663 42.6202H219.697L217.019 37.7957H215.142V42.6202H212.58ZM217.441 31.7665H215.136V35.5393H217.441C218.114 35.5393 218.652 35.3681 219.061 35.0195C219.465 34.671 219.673 34.2124 219.673 33.6437C219.673 33.0751 219.471 32.6226 219.061 32.2801C218.652 31.9377 218.114 31.7665 217.441 31.7665Z" fill="#004A8F"/>
<path d="M225.115 42.6202V29.504H233.413V31.901H227.677V34.8055H233.077V37.2147H227.677V40.1988H233.609V42.6141H225.115V42.6202Z" fill="#004A8F"/>
<path d="M245.227 42.6202L244.095 39.6729H238.354L237.204 42.6202H234.526L239.803 29.504H242.787L248.07 42.6202H245.221H245.227ZM243.221 37.4043L241.215 32.2068L239.216 37.4043H243.221Z" fill="#004A8F"/>
<path d="M110.127 11.2637H96.6438V42.1249H104.318V33.02H110.121C116.119 33.02 120.981 28.1527 120.981 22.1418C120.981 16.131 116.119 11.2637 110.121 11.2637H110.127ZM109.907 26.1654H104.324V18.4302H109.907C111.79 18.4302 113.313 20.1607 113.313 22.2947C113.313 24.4288 111.784 26.1592 109.907 26.1592V26.1654Z" fill="#004A8F"/>
<path d="M74.1843 11.2637L62.1504 42.1249H70.9067L72.7717 36.7684H84.0718L85.9368 42.1249H94.6932L82.6593 11.2637H74.1843ZM75.1565 29.9137L78.4218 20.5337L81.6871 29.9137H75.1565Z" fill="#004A8F"/>
<path d="M132.238 30.0421H144.284V23.1936H132.238V18.4363H145.024V11.2637H124.558V42.1249H145.434V34.9462H132.238V30.0421Z" fill="#004A8F"/>
<path d="M170.681 32.3902C168.969 34.2674 167.086 35.3314 164.236 35.3314C159.436 35.3314 155.963 31.6564 155.963 26.6912C155.963 21.726 159.436 18.0511 164.236 18.0511C167.092 18.0511 168.829 19.005 170.669 20.9433L175.543 15.2994C172.932 12.2115 168.951 10.5482 164.236 10.5482C155.083 10.5482 148.1 17.5313 148.1 26.6851C148.1 35.8389 155.083 42.822 164.236 42.822C169.085 42.822 172.767 41.1894 175.592 37.7834L170.681 32.3841V32.3902Z" fill="#004A8F"/>
<path d="M22.1459 22.8155C22.2621 22.0817 22.3416 21.6598 22.3416 21.6598C22.3416 21.6598 20.3237 16.5173 18.0062 11.6744C16.6304 8.78824 15.1567 6.00602 13.9338 4.45898C11.8731 1.84186 12.4785 2.11091 9.32934 1.56058C8.65672 1.4444 1.76537 1.9397 1.77149 1.97638C2.67647 6.538 3.63038 11.0935 4.63932 15.6368L6.52267 23.8795C7.18918 26.7045 7.87403 29.5234 8.58334 32.3362C9.01138 34.0239 9.46387 35.736 9.90413 37.4176C10.1976 38.5305 10.5156 39.6984 11.2983 40.5484C12.9615 42.3583 15.866 41.9975 18.2752 41.49C18.9662 41.3433 19.7 41.1721 20.1647 40.6462C20.764 39.9674 20.7028 38.9463 20.6355 38.0413C20.4888 36.054 20.8251 32.3607 21.2531 28.9914C21.5711 26.4905 21.9319 24.1547 22.1398 22.8216L22.1459 22.8155Z" fill="#66C76B"/>
<path d="M22.6656 31.1988C20.556 30.893 19.0762 30.6484 19.0762 30.6484C19.0762 30.6484 14.5635 32.4339 10.0019 34.568C6.81 36.06 4.66983 37.5153 2.96381 38.8606C0.346687 40.9274 0.61574 40.3159 0.0715254 43.4711C-0.0446552 44.1437 0.285545 50.5704 0.322233 50.5642C6.20464 49.3902 10.9925 48.3385 16.8382 46.9932C19.382 46.4062 21.9196 45.8008 24.4511 45.1894C26.8726 44.6023 29.2879 43.997 31.7032 43.3794C32.6877 43.1287 33.6722 42.878 34.6567 42.6212C35.7696 42.3276 36.9375 42.0097 37.7874 41.227C39.5974 39.5638 39.414 37.124 38.9064 34.7148C38.7597 34.0238 38.5885 33.29 38.0626 32.8253C37.3839 32.226 36.3627 32.2872 35.4577 32.3545C33.9779 32.4645 31.5504 32.2933 29.0127 32.0243C26.7931 31.7858 24.4939 31.4739 22.6656 31.211" fill="#866EBD"/>
<path d="M33.269 39.6788C34.8772 43.1826 36.7545 46.9187 38.2465 48.8021C40.3133 51.4192 39.7018 51.1501 42.857 51.6944C43.5296 51.8105 50.421 51.303 50.4149 51.2602C49.3692 46.0321 48.2502 40.8101 47.0701 35.6125L45.1195 27.2842C44.4713 24.5998 43.8048 21.9215 43.1199 19.2433C42.8325 18.1182 42.5452 16.9869 42.2516 15.8618C41.9581 14.7489 41.6402 13.581 40.8575 12.731C39.1942 10.9211 36.2897 11.2818 33.8805 11.7894C33.1896 11.9361 32.4558 12.1073 31.9911 12.6332C31.3918 13.312 31.453 14.3331 31.5202 15.2381C31.6303 16.7118 31.4591 19.1088 31.1961 21.628C30.9638 23.7927 30.6641 26.0368 30.4012 27.8529C30.0832 30.0542 29.8203 31.6196 29.8203 31.6196C29.8203 31.6196 31.349 35.4841 33.269 39.6727V39.6788Z" fill="#EF3F52"/>
<path d="M18.2398 9.53319C18.0135 9.59434 17.7873 9.64937 17.561 9.7044C16.4481 9.99791 15.2802 10.3159 14.4303 11.0986C12.6203 12.7618 12.9811 15.6663 13.4886 18.0755C13.6353 18.7665 13.8066 19.5003 14.3324 19.965C15.0112 20.5642 16.0323 20.5031 16.9373 20.4358C18.2275 20.3441 20.2271 20.4603 22.3917 20.6682C24.4891 20.8761 26.7332 21.1635 28.6471 21.4325C31.307 21.8055 33.3127 22.1357 33.3127 22.1357C33.3127 22.1357 36.7003 20.8149 40.577 19.0661C44.3009 17.3907 48.4651 15.3483 50.4952 13.7463C53.1123 11.6856 52.8432 12.291 53.3936 9.14184C53.5098 8.46922 53.0145 1.57787 52.9778 1.58399C47.132 2.74579 41.3047 3.98709 35.4895 5.314L27.5281 7.19123C24.4279 7.94335 21.3216 8.73215 18.2275 9.52707L18.2398 9.53319Z" fill="#F9B12A"/>
<path d="M6.54183 23.8612C7.66083 23.4882 8.82875 22.4548 9.07334 19.1712C9.21398 17.3306 7.56299 15.857 5.06816 15.6552C4.92141 15.643 4.78077 15.6307 4.64013 15.6246C2.35932 15.4534 0.158001 16.3095 -0.0376712 18.7431C-0.245573 21.3236 1.10579 23.3659 3.57616 23.7695C4.65236 23.9468 5.6613 24.1547 6.54183 23.8673V23.8612Z" fill="#66C76B"/>
<path d="M24.4574 45.1833C23.7297 44.5901 22.892 43.9175 21.6874 43.8197C19.1926 43.6179 17.0769 43.7769 16.869 46.3634C16.8506 46.5713 16.8445 46.7792 16.8445 46.9932C16.8139 49.3902 17.7128 51.83 19.9875 52.203C22.4334 52.6066 24.5552 53.1875 25.4847 47.6108C25.6437 46.6753 25.234 45.8192 24.4574 45.1894V45.1833Z" fill="#866EBD"/>
<path d="M28.0163 6.92891C28.5116 8.02346 29.3371 8.84895 30.5784 9.05074C32.9326 9.44208 34.9871 9.99853 35.9777 5.05168C36.0144 4.86212 36.0511 4.67256 36.0878 4.46466C36.3935 2.64246 34.981 0.691847 32.4862 0.483945C29.9914 0.276043 27.6922 0.624585 27.4782 3.20502C27.3742 4.48912 27.5271 5.84048 28.0163 6.9228V6.92891Z" fill="#F9B12A"/>
<path d="M45.2914 28.2506C44.0746 28.3851 42.3564 29.9138 42.2218 31.5587C42.0139 34.1391 43.7628 36.0164 46.2331 36.4199C46.5756 36.475 46.9119 36.5361 47.236 36.5789C49.2477 36.8602 50.9293 36.6217 51.7303 31.8216C52.0361 29.9994 50.5991 28.2017 48.1042 27.9999C47.1931 27.9265 45.9885 28.1711 45.2914 28.2445V28.2506Z" fill="#EF3F52"/>
<path d="M38.9065 34.702C38.7597 34.0111 38.5885 33.2773 38.0627 32.8126C37.3839 32.2133 36.3628 32.2745 35.4578 32.3417C34.1737 32.4335 32.1803 32.3173 30.0156 32.1094C30.4865 33.2773 31.7522 36.3714 33.2687 39.6733C33.7151 40.6517 34.1859 41.6423 34.6567 42.6084C35.7696 42.3149 36.9375 41.997 37.7814 41.2143C39.5913 39.551 39.4079 37.1113 38.9004 34.702H38.9065Z" fill="#844755"/>
<path d="M40.8574 12.7389C39.1942 10.9289 36.2897 11.2897 33.8805 11.7972C33.1895 11.9439 32.4557 12.1152 31.991 12.641C31.3918 13.3198 31.4529 14.3409 31.5202 15.2459C31.6302 16.7196 31.459 19.1166 31.1961 21.6358C31.19 21.6909 31.1838 21.752 31.1777 21.8071C32.4863 22.0027 33.324 22.1434 33.324 22.1434C33.324 22.1434 36.7116 20.8226 40.5884 19.0738C41.3221 18.7436 42.0681 18.4011 42.8141 18.0526C42.6246 17.3249 42.4412 16.5973 42.2516 15.8696C41.9581 14.7567 41.6401 13.5888 40.8574 12.7389Z" fill="#D2441F"/>
<path d="M9.07969 19.1774C9.22033 17.3369 7.56934 15.8632 5.07452 15.6614C4.92776 15.6492 4.78712 15.637 4.64648 15.6309L6.52983 23.8736H6.54207C7.66107 23.5006 8.82899 22.4672 9.07358 19.1835L9.07969 19.1774Z" fill="#40964C"/>
<path d="M16.876 46.3632C16.8577 46.5711 16.8516 46.779 16.8516 46.993C19.3953 46.406 21.9268 45.8067 24.4644 45.1891C23.7368 44.596 22.8991 43.9234 21.6945 43.8255C19.1996 43.6238 17.0839 43.7827 16.876 46.3693V46.3632Z" fill="#6A5596"/>
<path d="M30.5786 9.05076C32.9083 9.43599 34.9384 9.9802 35.9412 5.2168C35.7945 5.24737 35.6477 5.28406 35.5071 5.31463L28.0898 7.06346C28.5913 8.09074 29.3984 8.85508 30.5847 9.05076H30.5786Z" fill="#DF7A10"/>
<path d="M42.2277 31.5586C42.0198 34.139 43.7686 36.0163 46.239 36.4198C46.5814 36.4749 46.9177 36.536 47.2418 36.5788C47.2601 36.5788 47.2724 36.5788 47.2846 36.5788C47.2112 36.2547 47.1379 35.9307 47.0645 35.6066L45.3401 28.2383C45.3401 28.2383 45.3034 28.2383 45.2851 28.2444C44.0682 28.3789 42.35 29.9076 42.2155 31.5525L42.2277 31.5586Z" fill="#C72840"/>
<path d="M13.4945 18.0769C13.6412 18.7679 13.8124 19.5017 14.3383 19.9664C15.017 20.5657 16.0382 20.5045 16.9432 20.4372C18.1356 20.3516 19.9455 20.4434 21.9267 20.6268C21.2235 18.8841 19.6948 15.203 18.0072 11.6687C17.7136 11.045 17.4079 10.4335 17.1083 9.82812C16.1421 10.0911 15.1699 10.4213 14.4361 11.1C12.6262 12.7632 12.9869 15.6677 13.4945 18.0769Z" fill="#648249"/>
<path d="M11.2982 40.5421C12.9614 42.3521 15.8659 41.9913 18.2751 41.4838C18.9661 41.3371 19.6999 41.1658 20.1646 40.64C20.7639 39.9612 20.7027 38.9401 20.6354 38.0351C20.5193 36.433 20.7149 33.7119 21.0207 30.9542C19.8283 30.7707 19.0762 30.6484 19.0762 30.6484C19.0762 30.6484 14.5635 32.434 10.0019 34.568C9.74504 34.6903 9.49434 34.8065 9.25586 34.9288C9.47599 35.7604 9.69001 36.592 9.91014 37.4175C10.2037 38.5304 10.5216 39.6983 11.3043 40.5482L11.2982 40.5421Z" fill="#475965"/>
</g>
<defs>
<clipPath id="clip0_777_29408">
<rect width="297.172" height="52" fill="white" transform="translate(0 0.441406)"/>
</clipPath>
</defs>
</svg>
